<svg width="22" height="22" viewBox="0 0 22 22" fill="none" xmlns="http://www.w3.org/2000/svg">
<g clip-path="url(#clip0_0_303)">
<path d="M4.58333 6.41669H5.5C5.98623 6.41669 6.45255 6.22353 6.79636 5.87972C7.14018 5.5359 7.33333 5.06958 7.33333 4.58335C7.33333 4.34024 7.42991 4.10708 7.60182 3.93517C7.77373 3.76326 8.00688 3.66669 8.25 3.66669H13.75C13.9931 3.66669 14.2263 3.76326 14.3982 3.93517C14.5701 4.10708 14.6667 4.34024 14.6667 4.58335C14.6667 5.06958 14.8598 5.5359 15.2036 5.87972C15.5475 6.22353 16.0138 6.41669 16.5 6.41669H17.4167C17.9029 6.41669 18.3692 6.60984 18.713 6.95366C19.0568 7.29747 19.25 7.76379 19.25 8.25002V16.5C19.25 16.9863 19.0568 17.4526 18.713 17.7964C18.3692 18.1402 17.9029 18.3334 17.4167 18.3334H4.58333C4.0971 18.3334 3.63079 18.1402 3.28697 17.7964C2.94315 17.4526 2.75 16.9863 2.75 16.5V8.25002C2.75 7.76379 2.94315 7.29747 3.28697 6.95366C3.63079 6.60984 4.0971 6.41669 4.58333 6.41669Z" stroke="#263238" stroke-width="1.5" stroke-linecap="round" stroke-linejoin="round"/>
<path d="M8.25 11.9167C8.25 12.646 8.53973 13.3455 9.05546 13.8612C9.57118 14.377 10.2707 14.6667 11 14.6667C11.7293 14.6667 12.4288 14.377 12.9445 13.8612C13.4603 13.3455 13.75 12.646 13.75 11.9167C13.75 11.1873 13.4603 10.4879 12.9445 9.97214C12.4288 9.45642 11.7293 9.16669 11 9.16669C10.2707 9.16669 9.57118 9.45642 9.05546 9.97214C8.53973 10.4879 8.25 11.1873 8.25 11.9167Z" stroke="#263238" stroke-width="1.5" stroke-linecap="round" stroke-linejoin="round"/>
</g>
<defs>
<clipPath id="clip0_0_303">
<rect width="22" height="22" fill="white"/>
</clipPath>
</defs>
</svg>
