<svg width="24" height="24" viewBox="0 0 24 24" fill="none" xmlns="http://www.w3.org/2000/svg">
<path d="M18.9899 17.26H15.4099M17.1999 15.51V19.1M17.1999 22C18.4729 22 19.6938 21.4943 20.594 20.5941C21.4942 19.6939 21.9999 18.473 21.9999 17.2C21.9999 15.927 21.4942 14.7061 20.594 13.8059C19.6938 12.9057 18.4729 12.4 17.1999 12.4C15.9269 12.4 14.706 12.9057 13.8058 13.8059C12.9056 14.7061 12.3999 15.927 12.3999 17.2C12.3999 18.473 12.9056 19.6939 13.8058 20.5941C14.706 21.4943 15.9269 22 17.1999 22Z" stroke="black" stroke-width="1.5" stroke-miterlimit="10" stroke-linecap="round" stroke-linejoin="round"/>
<path d="M22 8.69001C22 10.66 21.49 12.4 20.69 13.91C20.242 13.4336 19.7013 13.0539 19.1011 12.7942C18.5009 12.5345 17.854 12.4004 17.2 12.4C14.55 12.4 12.4 14.55 12.4 17.2C12.4 18.43 12.87 19.55 13.63 20.4C13.26 20.57 12.92 20.71 12.62 20.81C12.28 20.93 11.72 20.93 11.38 20.81C8.48 19.82 2 15.69 2 8.69001C2 5.60001 4.49 3.10001 7.56 3.10001C9.37 3.10001 10.99 3.98001 12 5.33001C12.5159 4.63882 13.1857 4.0774 13.9565 3.6903C14.7272 3.3032 15.5775 3.10109 16.44 3.10001C19.51 3.10001 22 5.60001 22 8.69001Z" stroke="black" stroke-width="1.5" stroke-linecap="round" stroke-linejoin="round"/>
</svg>
