<svg width="22" height="22" viewBox="0 0 22 22" fill="none" xmlns="http://www.w3.org/2000/svg">
<path opacity="0.956" fill-rule="evenodd" clip-rule="evenodd" d="M10.8496 1.61131C11.5685 1.60477 12.2273 1.79813 12.8262 2.19138C14.9238 3.86319 17.0293 5.52464 19.1426 7.17576C19.7371 7.74187 20.0737 8.4365 20.1523 9.25974C20.1942 12.0252 20.1799 14.7896 20.1094 17.5527C19.7299 19.0494 18.7774 19.9159 17.252 20.1523C13.0697 20.181 8.88736 20.181 4.70508 20.1523C3.44259 19.9782 2.54741 19.3122 2.01953 18.1543C1.90418 17.864 1.83257 17.5632 1.80469 17.2519C1.77604 14.5879 1.77604 11.9238 1.80469 9.25974C1.89908 8.30756 2.3216 7.54125 3.07227 6.96091C5.0918 5.37107 7.11133 3.78123 9.13086 2.19138C9.658 1.8462 10.2309 1.65284 10.8496 1.61131ZM10.5918 2.59959C11.2388 2.52858 11.8261 2.67897 12.3535 3.05076C14.4017 4.66926 16.4499 6.28772 18.498 7.90623C18.9516 8.36234 19.1879 8.91376 19.207 9.56052C19.2482 12.1681 19.2338 14.7749 19.1641 17.3808C18.8534 18.5079 18.1158 19.1166 16.9512 19.207C12.9694 19.2357 8.98765 19.2357 5.00586 19.207C3.84122 19.1166 3.10359 18.5079 2.79297 17.3808C2.77865 17.2233 2.76432 17.0657 2.75 16.9082C2.72135 14.459 2.72135 12.0097 2.75 9.56052C2.78361 8.78421 3.10587 8.16116 3.7168 7.69138C5.69138 6.16088 7.65364 4.614 9.60352 3.05076C9.90821 2.8374 10.2376 2.68701 10.5918 2.59959Z" fill="#0254B8"/>
<path opacity="0.96" fill-rule="evenodd" clip-rule="evenodd" d="M8.52936 16.0059C10.1622 15.9987 11.795 16.0059 13.4278 16.0273C13.7128 16.1604 13.8059 16.3824 13.7071 16.6934C13.6533 16.8172 13.5603 16.8959 13.4278 16.9297C11.795 16.9584 10.1622 16.9584 8.52936 16.9297C8.30575 16.8621 8.20551 16.7118 8.22858 16.4785C8.21066 16.2416 8.31091 16.0841 8.52936 16.0059Z" fill="#0254B8"/>
</svg>
