<svg width="22" height="22" viewBox="0 0 22 22" fill="none" xmlns="http://www.w3.org/2000/svg">
<path d="M10.9999 12.3108C11.3755 12.3108 11.7474 12.2369 12.0944 12.0931C12.4414 11.9494 12.7566 11.7387 13.0222 11.4732C13.2878 11.2076 13.4985 10.8923 13.6422 10.5453C13.7859 10.1983 13.8599 9.82642 13.8599 9.45084C13.8599 9.07526 13.7859 8.70335 13.6422 8.35636C13.4985 8.00937 13.2878 7.69409 13.0222 7.42851C12.7566 7.16293 12.4414 6.95227 12.0944 6.80854C11.7474 6.66481 11.3755 6.59084 10.9999 6.59084C10.2414 6.59084 9.51392 6.89216 8.97757 7.42851C8.44121 7.96486 8.13989 8.69232 8.13989 9.45084C8.13989 10.2094 8.44121 10.9368 8.97757 11.4732C9.51392 12.0095 10.2414 12.3108 10.9999 12.3108Z" stroke="#403C3C" stroke-width="1.5"/>
<path d="M3.31823 7.7825C5.12406 -0.155836 16.8849 -0.146669 18.6816 7.79166C19.7357 12.4483 16.8391 16.39 14.2999 18.8283C13.4126 19.6841 12.228 20.1623 10.9953 20.1623C9.76262 20.1623 8.57799 19.6841 7.69073 18.8283C5.16073 16.39 2.26406 12.4392 3.31823 7.7825Z" stroke="#403C3C" stroke-width="1.5"/>
</svg>
