<svg width="17" height="19" viewBox="0 0 17 19" fill="none" xmlns="http://www.w3.org/2000/svg">
<path d="M16 18C16 14.7105 12.6385 12.05 8.5 12.05C4.36147 12.05 1 14.7105 1 18M8.5 9.5C9.65781 9.5 10.7682 9.05223 11.5869 8.2552C12.4056 7.45817 12.8655 6.37717 12.8655 5.25C12.8655 4.12283 12.4056 3.04183 11.5869 2.2448C10.7682 1.44777 9.65781 1 8.5 1C7.34219 1 6.23179 1.44777 5.4131 2.2448C4.5944 3.04183 4.13446 4.12283 4.13446 5.25C4.13446 6.37717 4.5944 7.45817 5.4131 8.2552C6.23179 9.05223 7.34219 9.5 8.5 9.5Z" stroke="black" stroke-width="1.5" stroke-linecap="round" stroke-linejoin="round"/>
</svg>
