<svg width="22" height="22" viewBox="0 0 22 22" fill="none" xmlns="http://www.w3.org/2000/svg">
<path d="M11.1467 9.96414C11.0551 9.95497 10.9451 9.95497 10.8442 9.96414C9.7921 9.92841 8.79516 9.48457 8.06457 8.7266C7.33397 7.96863 6.92709 6.95605 6.93008 5.9033C6.93008 3.65747 8.74508 1.8333 11.0001 1.8333C11.534 1.82367 12.0645 1.91929 12.5614 2.1147C13.0584 2.31011 13.5119 2.60148 13.8962 2.97218C14.2806 3.34288 14.5881 3.78565 14.8013 4.2752C15.0145 4.76475 15.1292 5.29151 15.1388 5.82539C15.1485 6.35926 15.0528 6.88981 14.8574 7.38674C14.662 7.88366 14.3706 8.33723 13.9999 8.72155C13.6292 9.10587 13.1865 9.41341 12.6969 9.62661C12.2074 9.83981 11.6806 9.95451 11.1467 9.96414ZM6.56341 13.3466C4.34507 14.8316 4.34507 17.2516 6.56341 18.7275C9.08424 20.4141 13.2184 20.4141 15.7392 18.7275C17.9576 17.2425 17.9576 14.8225 15.7392 13.3466C13.2276 11.6691 9.09341 11.6691 6.56341 13.3466Z" stroke="#263238" stroke-width="1.5" stroke-linecap="round" stroke-linejoin="round"/>
</svg>
