<svg width="22" height="22" viewBox="0 0 22 22" fill="none" xmlns="http://www.w3.org/2000/svg">
<path d="M3.82261 14.025L7.97511 18.1775C8.79645 18.9964 9.909 19.4563 11.0689 19.4563C12.2287 19.4563 13.3413 18.9964 14.1626 18.1775L18.1868 14.1533C19.0057 13.332 19.4656 12.2194 19.4656 11.0596C19.4656 9.8997 19.0057 8.78716 18.1868 7.96581L14.0251 3.82248C13.5948 3.39101 13.0788 3.05466 12.5103 2.83517C11.9419 2.61569 11.3337 2.51796 10.7251 2.54831L6.14177 2.76831C4.30844 2.85081 2.85094 4.30831 2.75927 6.13248L2.53927 10.7158C2.48427 11.9533 2.95177 13.1541 3.82261 14.025Z" stroke="#263238" stroke-width="1.5" stroke-linecap="round" stroke-linejoin="round"/>
<path d="M8.70841 11C9.3162 11 9.8991 10.7586 10.3289 10.3288C10.7586 9.89904 11.0001 9.31614 11.0001 8.70835C11.0001 8.10057 10.7586 7.51767 10.3289 7.0879C9.8991 6.65813 9.3162 6.41669 8.70841 6.41669C8.10063 6.41669 7.51773 6.65813 7.08796 7.0879C6.65819 7.51767 6.41675 8.10057 6.41675 8.70835C6.41675 9.31614 6.65819 9.89904 7.08796 10.3288C7.51773 10.7586 8.10063 11 8.70841 11Z" stroke="#263238" stroke-width="1.5" stroke-linecap="round"/>
</svg>
